<mxfile host="65bd71144e" modified="2020-12-24T01:03:53.138Z" agent="5.0 (Windows NT 10.0; Win64; x64) AppleWebKit/537.36 (KHTML, like Gecko) Code/1.52.1 Chrome/83.0.4103.122 Electron/9.3.5 Safari/537.36" version="13.10.0" etag="GHfp3GTCDzg4lCWAYayY" type="embed">
    <diagram id="fMk_wou9zqr300zdaPAr" name="Page-1">
        <mxGraphModel dx="1173" dy="790" grid="1" gridSize="10" guides="1" tooltips="1" connect="1" arrows="1" fold="1" page="1" pageScale="1" pageWidth="850" pageHeight="1400" math="0" shadow="0">
            <root>
                <mxCell id="0"/>
                <mxCell id="1" parent="0"/>
                <mxCell id="2" value="&lt;font color=&quot;#ff8000&quot;&gt;Problem Domain:&lt;br style=&quot;font-size: 12px&quot;&gt;&lt;/font&gt;&lt;font&gt;&lt;font color=&quot;#ff8000&quot;&gt;&lt;span style=&quot;font-weight: normal&quot;&gt;&lt;font style=&quot;font-size: 12px&quot;&gt;kth value from end of a linked link&lt;/font&gt;&lt;/span&gt;&lt;br&gt;&lt;br&gt;kthvalue(1)&lt;br&gt;returns 4&lt;/font&gt;&lt;br&gt;&lt;/font&gt;" style="whiteSpace=wrap;html=1;fontSize=14;fontStyle=1;align=left;" vertex="1" parent="1">
                    <mxGeometry x="40" y="40" width="240" height="130" as="geometry"/>
                </mxCell>
                <mxCell id="4" value="&lt;font color=&quot;#ff8000&quot;&gt;Visual:&lt;br&gt;&lt;br&gt;&lt;br&gt;&lt;br&gt;&lt;br&gt;&amp;nbsp; &amp;nbsp; &amp;nbsp; &amp;nbsp; &amp;nbsp; &amp;nbsp; &amp;nbsp; &amp;nbsp; &amp;nbsp; &amp;nbsp; &amp;nbsp; &amp;nbsp; &amp;nbsp; &amp;nbsp; &amp;nbsp; &amp;nbsp; &amp;nbsp; &amp;nbsp; &amp;nbsp; &amp;nbsp; &amp;nbsp; &amp;nbsp; &amp;nbsp; 1&amp;nbsp; &amp;nbsp; &amp;nbsp; &amp;nbsp; &amp;nbsp; &amp;nbsp; &amp;nbsp;0&lt;br&gt;&lt;/font&gt;" style="whiteSpace=wrap;html=1;fontSize=14;align=left;verticalAlign=top;" vertex="1" parent="1">
                    <mxGeometry x="40" y="200" width="280" height="120" as="geometry"/>
                </mxCell>
                <mxCell id="6" value="&lt;font color=&quot;#ff8000&quot;&gt;1&lt;/font&gt;" style="rhombus;whiteSpace=wrap;html=1;fontSize=14;" vertex="1" parent="1">
                    <mxGeometry x="50" y="230" width="50" height="50" as="geometry"/>
                </mxCell>
                <mxCell id="7" value="&lt;font color=&quot;#ff8000&quot;&gt;2&lt;/font&gt;" style="rhombus;whiteSpace=wrap;html=1;fontSize=14;" vertex="1" parent="1">
                    <mxGeometry x="100" y="230" width="50" height="50" as="geometry"/>
                </mxCell>
                <mxCell id="8" value="&lt;font color=&quot;#ff8000&quot;&gt;3&lt;/font&gt;" style="rhombus;whiteSpace=wrap;html=1;fontSize=14;" vertex="1" parent="1">
                    <mxGeometry x="150" y="230" width="50" height="50" as="geometry"/>
                </mxCell>
                <mxCell id="9" value="&lt;font color=&quot;#ff8000&quot;&gt;4&lt;/font&gt;" style="rhombus;whiteSpace=wrap;html=1;fontSize=14;" vertex="1" parent="1">
                    <mxGeometry x="200" y="230" width="50" height="50" as="geometry"/>
                </mxCell>
                <mxCell id="10" value="&lt;font color=&quot;#ff8000&quot;&gt;5&lt;/font&gt;" style="rhombus;whiteSpace=wrap;html=1;fontSize=14;" vertex="1" parent="1">
                    <mxGeometry x="250" y="230" width="50" height="50" as="geometry"/>
                </mxCell>
                <mxCell id="11" value="" style="endArrow=classic;html=1;fontSize=14;" edge="1" parent="1">
                    <mxGeometry width="50" height="50" relative="1" as="geometry">
                        <mxPoint x="270" y="300" as="sourcePoint"/>
                        <mxPoint x="230" y="300" as="targetPoint"/>
                    </mxGeometry>
                </mxCell>
                <mxCell id="12" value="&lt;font color=&quot;#ff8000&quot; style=&quot;line-height: 100%&quot;&gt;Algorithm:&lt;br&gt;&amp;nbsp; &amp;nbsp; - go to last node in list&lt;br&gt;&amp;nbsp; &amp;nbsp; - count to get index&lt;br&gt;&amp;nbsp; &amp;nbsp; - return kth value starting from the end&lt;br&gt;&lt;/font&gt;" style="whiteSpace=wrap;html=1;fontSize=14;align=left;" vertex="1" parent="1">
                    <mxGeometry x="40" y="350" width="260" height="70" as="geometry"/>
                </mxCell>
                <mxCell id="13" value="&lt;b style=&quot;font-size: 13px&quot;&gt;&lt;span style=&quot;font-size: 13px&quot;&gt;Code:&lt;/span&gt;&lt;font style=&quot;font-size: 13px&quot;&gt;&lt;br&gt;&lt;/font&gt;&lt;/b&gt;&lt;font&gt;&lt;font style=&quot;font-size: 12px&quot;&gt;new_node = Node(value)&lt;br&gt;current = self.head&lt;br&gt;while current in not null:&lt;br&gt;&amp;nbsp; &amp;nbsp; current = current.next&lt;br&gt;&amp;nbsp; &amp;nbsp; count += 1&lt;br&gt;count -k = kth value&lt;br&gt;current.next = new_node&lt;/font&gt;&lt;br&gt;&lt;/font&gt;" style="whiteSpace=wrap;html=1;fontSize=14;verticalAlign=top;fontColor=#FF8000;align=left;" vertex="1" parent="1">
                    <mxGeometry x="40" y="450" width="170" height="150" as="geometry"/>
                </mxCell>
                <mxCell id="14" value="&lt;font style=&quot;font-size: 12px&quot;&gt;def getindex(self, index):&lt;br&gt;current = self.tail&lt;br&gt;count = 0&lt;br&gt;&lt;br&gt;&lt;br&gt;while (current):&lt;br&gt;&amp;nbsp; &amp;nbsp; if (count == index):&lt;br&gt;return current.node_value&lt;br&gt;count += 1&lt;br&gt;current = current.next&lt;br&gt;return count -k&lt;br&gt;&lt;/font&gt;" style="whiteSpace=wrap;html=1;fontSize=14;fontColor=#FF8000;align=left;verticalAlign=top;" vertex="1" parent="1">
                    <mxGeometry x="400" y="80" width="150" height="200" as="geometry"/>
                </mxCell>
                <mxCell id="15" value="Verification:" style="whiteSpace=wrap;html=1;fontSize=14;fontColor=#FF8000;verticalAlign=top;fontStyle=1;align=left;" vertex="1" parent="1">
                    <mxGeometry x="280" y="480" width="280" height="160" as="geometry"/>
                </mxCell>
                <mxCell id="17" value="&lt;font color=&quot;#ff8000&quot;&gt;1&lt;/font&gt;" style="rhombus;whiteSpace=wrap;html=1;fontSize=14;" vertex="1" parent="1">
                    <mxGeometry x="290" y="560" width="50" height="50" as="geometry"/>
                </mxCell>
                <mxCell id="18" value="&lt;font color=&quot;#ff8000&quot;&gt;8&lt;/font&gt;" style="rhombus;whiteSpace=wrap;html=1;fontSize=14;" vertex="1" parent="1">
                    <mxGeometry x="350" y="500" width="50" height="50" as="geometry"/>
                </mxCell>
                <mxCell id="19" value="&lt;font color=&quot;#ff8000&quot;&gt;3&lt;/font&gt;" style="rhombus;whiteSpace=wrap;html=1;fontSize=14;" vertex="1" parent="1">
                    <mxGeometry x="390" y="570" width="50" height="50" as="geometry"/>
                </mxCell>
                <mxCell id="20" value="&lt;font color=&quot;#ff8000&quot;&gt;2&lt;/font&gt;" style="rhombus;whiteSpace=wrap;html=1;fontSize=14;" vertex="1" parent="1">
                    <mxGeometry x="450" y="480" width="50" height="50" as="geometry"/>
                </mxCell>
                <mxCell id="21" value="&lt;font color=&quot;#ff8000&quot;&gt;7&lt;/font&gt;" style="rhombus;whiteSpace=wrap;html=1;fontSize=14;" vertex="1" parent="1">
                    <mxGeometry x="510" y="540" width="50" height="50" as="geometry"/>
                </mxCell>
                <mxCell id="22" value="" style="endArrow=classic;html=1;fontSize=14;fontColor=#FF8000;" edge="1" parent="1">
                    <mxGeometry width="50" height="50" relative="1" as="geometry">
                        <mxPoint x="330" y="570" as="sourcePoint"/>
                        <mxPoint x="360" y="540" as="targetPoint"/>
                    </mxGeometry>
                </mxCell>
                <mxCell id="23" value="" style="endArrow=classic;html=1;fontSize=14;fontColor=#FF8000;entryX=0;entryY=0;entryDx=0;entryDy=0;" edge="1" parent="1" target="19">
                    <mxGeometry width="50" height="50" relative="1" as="geometry">
                        <mxPoint x="390" y="540" as="sourcePoint"/>
                        <mxPoint x="440" y="490" as="targetPoint"/>
                    </mxGeometry>
                </mxCell>
                <mxCell id="24" value="" style="endArrow=classic;html=1;fontSize=14;fontColor=#FF8000;" edge="1" parent="1" target="20">
                    <mxGeometry width="50" height="50" relative="1" as="geometry">
                        <mxPoint x="430" y="580" as="sourcePoint"/>
                        <mxPoint x="480" y="530" as="targetPoint"/>
                    </mxGeometry>
                </mxCell>
                <mxCell id="25" value="" style="endArrow=classic;html=1;fontSize=14;fontColor=#FF8000;" edge="1" parent="1" target="21">
                    <mxGeometry width="50" height="50" relative="1" as="geometry">
                        <mxPoint x="490" y="520" as="sourcePoint"/>
                        <mxPoint x="540" y="470" as="targetPoint"/>
                    </mxGeometry>
                </mxCell>
                <mxCell id="26" value="kthvalue(3) -&lt;br&gt;return 8" style="text;html=1;align=left;verticalAlign=middle;resizable=0;points=[];autosize=1;fontSize=14;fontColor=#FF8000;" vertex="1" parent="1">
                    <mxGeometry x="590" y="490" width="90" height="40" as="geometry"/>
                </mxCell>
            </root>
        </mxGraphModel>
    </diagram>
</mxfile>